<svg width="24" height="24" viewBox="0 0 24 24" fill="none" xmlns="http://www.w3.org/2000/svg">
<path d="M4.2826 17.5962C3.69682 18.182 3.69682 19.1317 4.2826 19.7175C4.86839 20.3033 5.81814 20.3033 6.40392 19.7175L4.2826 17.5962ZM20.157 5.34315C20.157 4.51473 19.4854 3.84315 18.657 3.84315L5.15697 3.84315C4.32854 3.84315 3.65697 4.51472 3.65697 5.34315C3.65697 6.17158 4.32854 6.84315 5.15697 6.84315H17.157V18.8432C17.157 19.6716 17.8285 20.3432 18.657 20.3432C19.4854 20.3432 20.157 19.6716 20.157 18.8432L20.157 5.34315ZM6.40392 19.7175L19.7176 6.40381L17.5963 4.28249L4.2826 17.5962L6.40392 19.7175Z" fill="black"/>
</svg>
